<svg version="1.1" id="Layer_1" xmlns="http://www.w3.org/2000/svg" xmlns:xlink="http://www.w3.org/1999/xlink" x="0px" y="0px"
	 width="100%" viewBox="0 0 290 290" enable-background="new 0 0 290 290" xml:space="preserve">
<path fill="#FEFEFE" opacity="1.000000" stroke="none" 
	d="
M194.000000,291.000000 
	C130.693756,291.000000 67.887459,290.970673 5.081418,291.083893 
	C1.837444,291.089722 0.889507,290.676788 0.894582,287.084564 
	C1.027554,192.958694 1.020317,98.832558 0.913780,4.706604 
	C0.910129,1.480268 1.770103,0.926546 4.790325,0.929315 
	C98.916313,1.015627 193.042404,1.013394 287.168396,0.937426 
	C290.089661,0.935068 291.097260,1.336643 291.093170,4.665349 
	C290.977386,98.957863 290.979431,193.250580 291.090790,287.543091 
	C291.094452,290.641876 290.325104,291.085754 287.459503,291.074677 
	C256.473358,290.955078 225.486588,291.000000 194.000000,291.000000 
z"/>
<path fill="#4A4A4A" opacity="1.000000" stroke="none" 
	d="
M116.717415,179.571838 
	C119.102623,177.116638 121.983551,178.457413 124.648216,178.240448 
	C127.780815,177.985413 130.950012,178.192444 134.103165,178.172424 
	C135.904846,178.160980 137.762222,178.502777 137.768677,175.566025 
	C137.774719,172.813736 136.217224,172.735962 134.257629,172.761887 
	C131.768661,172.794815 129.278885,172.765488 126.789459,172.765472 
	C108.367668,172.765427 89.945877,172.758560 71.524101,172.774521 
	C68.830078,172.776855 66.094666,172.983337 64.857147,169.438751 
	C65.732941,168.252319 65.508141,167.204849 65.506996,166.231842 
	C65.471786,136.419571 65.606621,106.607162 65.190796,76.381981 
	C65.621407,72.027100 68.683273,72.413162 71.487938,72.410645 
	C86.964363,72.396744 102.440811,72.403191 117.917252,72.403114 
	C152.364807,72.402954 186.812378,72.410904 221.259918,72.387985 
	C223.977570,72.386177 226.666946,72.239555 228.106857,75.579025 
	C227.170837,76.934799 227.497330,78.155685 227.497925,79.283035 
	C227.513687,109.203362 227.419785,139.123749 227.706390,169.497437 
	C226.887985,173.185776 224.179077,172.745911 221.746719,172.748383 
	C201.675644,172.768692 181.604507,172.758774 161.533401,172.758972 
	C160.372314,172.758987 159.207581,172.827866 158.050903,172.758636 
	C155.829285,172.625641 155.269440,173.768127 155.263901,175.792038 
	C155.258041,177.940262 156.477600,178.164825 158.120544,178.181564 
	C164.082733,178.242294 170.044540,178.338638 176.183899,178.793549 
	C177.342316,185.591858 177.043930,185.977356 170.521423,185.987839 
	C154.263077,186.013962 138.004639,185.985123 121.746292,186.010239 
	C119.769096,186.013290 117.759026,185.738358 115.414299,186.693634 
	C110.219131,187.038071 113.873184,184.569199 114.103981,183.029816 
	C115.939972,182.560059 116.226479,181.151138 116.717415,179.571838 
z"/>
<path fill="#424242" opacity="1.000000" stroke="none" 
	d="
M60.266518,222.837830 
	C57.669285,222.968826 58.243374,221.587723 58.782734,220.297653 
	C62.558125,211.267502 66.393654,202.262207 70.113525,193.209335 
	C71.239517,190.469070 73.471359,191.013016 75.559196,191.012070 
	C98.509674,191.001785 121.460152,191.005814 144.410629,191.005829 
	C168.691574,191.005844 192.973022,191.083588 217.252869,190.919830 
	C220.806015,190.895859 222.543671,191.960068 223.821915,195.294144 
	C226.849136,203.190094 230.372635,210.894547 233.558426,218.732132 
	C234.085373,220.028503 235.919571,221.562897 233.354172,223.034790 
	C232.823257,222.884018 232.644424,222.761169 232.222839,222.855026 
	C230.992737,223.162354 230.005402,223.332169 229.018066,223.332199 
	C173.323257,223.333893 117.628448,223.321457 61.478798,223.194061 
	C60.861206,222.940491 60.698448,222.803253 60.266518,222.837830 
z"/>
<path fill="#CFCFCF" opacity="1.000000" stroke="none" 
	d="
M120.101601,243.956726 
	C109.147934,242.319595 98.437302,243.852692 88.013969,241.333694 
	C127.314301,238.147415 166.608459,238.039963 206.549881,241.117920 
	C204.237320,242.679596 202.323715,242.847244 200.318832,242.942429 
	C173.752869,244.203552 147.170654,244.093430 120.101601,243.956726 
z"/>
<path fill="#4D4D4D" opacity="1.000000" stroke="none" 
	d="
M252.684677,213.918793 
	C249.428101,213.991409 246.621094,213.951965 243.887939,213.117859 
	C242.143448,212.585495 240.979538,211.563431 240.923996,209.625580 
	C240.835922,206.552673 242.729675,204.783112 245.158203,203.461197 
	C246.492981,202.734634 248.037582,201.131073 249.148361,203.753113 
	C249.445068,204.453491 250.420898,204.958252 250.512268,204.661224 
	C251.756622,200.615570 254.061798,202.450928 256.218323,203.542587 
	C258.242584,204.567322 259.877838,206.180740 260.115173,208.394226 
	C260.681885,213.679443 256.391754,213.236572 252.684677,213.918793 
z"/>
<path fill="#3D3D3D" opacity="1.000000" stroke="none" 
	d="
M115.467819,187.032043 
	C115.656471,183.888641 118.145294,185.049423 119.886452,185.040924 
	C136.881607,184.957932 153.878357,184.891739 170.872116,185.066879 
	C174.628616,185.105591 176.631546,184.225555 176.234924,179.661469 
	C178.416351,179.969955 178.216278,182.218124 179.264343,184.015747 
	C179.512924,184.931641 179.576279,185.526642 179.230789,186.528046 
	C157.972107,186.978455 136.951859,187.040604 115.467819,187.032043 
z"/>
<path fill="#252525" opacity="1.000000" stroke="none" 
	d="
M228.057800,169.515472 
	C226.683243,168.927032 226.987091,167.525513 226.986633,166.228806 
	C226.976212,137.121490 226.976425,108.014168 226.999374,78.906868 
	C227.000015,78.100792 227.273453,77.294930 227.752625,76.221512 
	C228.167709,94.211098 228.282867,112.468071 228.320755,130.725220 
	C228.347305,143.510056 228.268311,156.295105 228.057800,169.515472 
z"/>
<path fill="#252525" opacity="1.000000" stroke="none" 
	d="
M64.822350,76.428162 
	C66.296585,76.869522 66.009636,78.284294 66.010139,79.573044 
	C66.021286,108.418900 66.021622,137.264755 65.998245,166.110596 
	C65.997597,166.912888 65.713745,167.714966 65.230064,168.786819 
	C64.821426,146.140472 64.734718,123.224457 64.673447,100.308380 
	C64.652573,92.501457 64.695679,84.694366 64.822350,76.428162 
z"/>
<path fill="#3D3D3D" opacity="1.000000" stroke="none" 
	d="
M116.301208,179.311569 
	C116.921440,180.681900 117.511681,182.313095 114.788750,182.847504 
	C114.874161,181.719940 115.410812,180.583649 116.301208,179.311569 
z"/>
<path fill="#4A4A4A" opacity="1.000000" stroke="none" 
	d="
M179.274994,186.957611 
	C179.030975,186.344482 179.069611,185.772675 179.193756,184.777802 
	C180.113724,185.158066 181.189255,185.936005 179.274994,186.957611 
z"/>
<path fill="#2B2B2B" opacity="1.000000" stroke="none" 
	d="
M60.248405,223.111023 
	C60.207600,222.696350 60.365566,222.229980 60.936867,222.898071 
	C60.849129,223.122620 60.674301,223.167496 60.248405,223.111023 
z"/>
<path fill="#2B2B2B" opacity="1.000000" stroke="none" 
	d="
M232.240952,223.140182 
	C232.166885,222.761749 232.259506,222.260406 232.900909,222.837524 
	C232.835327,223.074112 232.668579,223.141373 232.240952,223.140182 
z"/>
<path fill="#FCFCFC" opacity="1.000000" stroke="none" 
	d="
M73.416397,165.272491 
	C72.140839,163.455750 72.356300,161.767487 72.355957,160.115112 
	C72.350777,135.148956 72.443153,110.182137 72.261314,85.217300 
	C72.232063,81.202042 73.432602,80.257675 77.321091,80.268890 
	C123.424889,80.402016 169.529205,80.360306 215.633392,80.341057 
	C218.390213,80.339905 220.754440,79.919769 220.722763,84.241447 
	C220.531219,110.371231 220.618195,136.503052 220.598755,162.634171 
	C220.598389,163.123199 220.434967,163.612076 220.171356,164.542847 
	C218.599442,166.228729 216.873459,165.982513 215.231491,165.983185 
	C169.413300,166.001724 123.595116,166.000366 77.776924,165.988251 
	C76.449760,165.987900 75.103516,166.081818 73.416397,165.272491 
z"/>
<path fill="#323232" opacity="1.000000" stroke="none" 
	d="
M73.099548,165.393524 
	C121.687309,164.968475 170.374115,164.939072 219.527985,164.947174 
	C220.071030,165.706116 220.841492,166.711197 219.493118,166.932617 
	C218.357254,167.119141 217.170914,167.011642 216.006927,167.011703 
	C170.061600,167.013657 124.116264,167.023773 78.171005,166.969666 
	C76.496521,166.967697 74.440971,167.883881 73.099548,165.393524 
z"/>
<path fill="#3D3D3D" opacity="1.000000" stroke="none" 
	d="
M109.000000,171.002380 
	C95.743034,171.002396 82.986069,171.002396 70.229103,171.002396 
	C70.228973,170.776794 70.228851,170.551193 70.228729,170.325592 
	C92.073593,170.325592 113.918465,170.325592 135.763336,170.325592 
	C135.769547,170.551193 135.775757,170.776779 135.781967,171.002380 
	C127.021317,171.002380 118.260658,171.002380 109.000000,171.002380 
z"/>
<path fill="#EEEEEE" opacity="1.000000" stroke="none" 
	d="
M152.706421,209.661652 
	C153.338760,211.062622 154.156387,211.709991 156.243179,211.971619 
	C159.246323,210.083527 161.758286,210.803162 164.569031,211.459564 
	C165.035721,211.867950 165.172256,212.083099 165.156982,212.649078 
	C164.990707,214.330246 164.976227,215.660599 164.950104,217.390381 
	C164.346268,218.415726 163.642242,218.876282 162.767044,218.876099 
	C148.457047,218.873123 134.142441,219.478165 119.422081,218.301819 
	C119.005119,218.035812 118.761452,217.782516 118.585945,217.791473 
	C116.083908,216.489731 117.714806,214.511520 117.593063,212.438507 
	C117.661804,210.995316 117.716240,209.946442 117.878494,208.509857 
	C118.223145,206.818787 118.647362,205.582214 119.901291,204.347733 
	C122.554054,205.091141 126.089249,201.860550 127.518570,206.540924 
	C127.531319,207.533463 127.841377,208.040741 128.205948,208.820801 
	C128.349533,209.421387 128.389557,209.764832 128.599213,209.929443 
	C128.918259,209.649796 129.060135,209.549850 129.449127,209.345413 
	C129.874237,209.196121 130.052261,209.151291 130.508026,209.067886 
	C131.557159,208.972595 132.325150,209.005478 133.379654,209.190689 
	C133.846283,209.356293 134.023407,209.448425 134.389557,209.772827 
	C135.591873,212.095474 137.357254,211.636780 139.552216,210.598663 
	C140.875305,209.111664 141.837646,209.071884 143.168167,209.631912 
	C144.572174,212.055145 146.481400,211.611786 148.901352,210.598145 
	C150.374115,209.031616 151.392242,209.054916 152.706421,209.661652 
z"/>
<path fill="#585858" opacity="1.000000" stroke="none" 
	d="
M165.248199,212.999695 
	C164.393295,212.717987 163.781418,212.436081 162.174805,211.975983 
	C161.488876,211.291473 161.876007,210.854736 162.702560,210.252899 
	C163.304535,209.874313 163.546539,209.731430 164.167969,209.421326 
	C167.202774,208.237152 170.317383,209.314957 173.093536,207.222015 
	C173.627396,206.887070 173.854141,206.778061 174.454315,206.665054 
	C176.433182,210.311630 179.734253,208.212143 182.580505,208.898087 
	C183.398621,208.981094 183.866562,208.994293 184.680496,208.974228 
	C187.886658,208.592987 191.628403,209.547562 191.651215,204.370728 
	C192.635468,204.039642 193.432816,203.993729 194.628235,203.980179 
	C195.355438,204.370087 195.692627,204.742889 195.842133,205.201035 
	C196.392654,206.887970 196.686661,208.849701 199.172119,208.544968 
	C201.554214,208.252899 200.614471,205.999954 201.521790,204.440918 
	C202.263245,204.134750 202.813004,204.106247 203.776123,204.090942 
	C206.139603,207.814758 208.372452,210.556274 212.826767,207.025085 
	C214.136490,205.986801 215.273026,206.851761 216.484283,208.121704 
	C217.027267,208.799423 217.292618,209.223145 217.673462,210.025452 
	C218.265411,211.930725 218.338058,213.485046 217.712326,215.397980 
	C217.327652,215.814713 217.127289,215.880875 216.612732,215.985382 
	C213.271805,214.526672 210.482986,211.818954 206.386932,214.266876 
	C205.838821,214.426712 205.609970,214.458359 205.036331,214.445099 
	C199.822311,212.035263 194.668839,214.715317 189.641937,213.538208 
	C187.340683,212.999359 187.918030,215.765656 187.419830,217.552536 
	C186.657822,217.868866 186.068130,217.883011 185.040970,217.826599 
	C183.126114,214.103882 180.444199,212.628845 176.205917,213.323608 
	C175.346054,213.345749 174.849136,213.349869 173.965225,213.358078 
	C171.469223,213.304703 169.339386,213.641876 166.859390,213.022964 
	C166.460129,213.009033 165.975281,213.043640 165.975281,213.043640 
	C165.975281,213.043640 165.491196,212.999512 165.248199,212.999695 
z"/>
<path fill="#E9E9E9" opacity="1.000000" stroke="none" 
	d="
M205.991394,214.134949 
	C209.084747,210.504333 213.406265,211.177170 216.037445,215.739105 
	C215.989334,216.564453 215.689774,217.570206 215.369492,217.576843 
	C209.611053,217.696320 203.686462,218.522675 198.147430,217.427551 
	C194.477386,216.701965 191.434311,219.093628 187.664749,217.850952 
	C185.215210,212.050156 186.081955,210.767349 191.890121,212.138550 
	C194.190536,212.681641 195.985504,212.722198 198.268082,212.180573 
	C200.191574,211.724152 202.901138,210.893768 204.819977,213.682831 
	C205.194473,214.385452 205.473007,214.436737 205.991394,214.134949 
z"/>
<path fill="#E9E9E9" opacity="1.000000" stroke="none" 
	d="
M216.045532,209.172470 
	C215.004089,208.797760 214.771744,205.382660 213.190994,208.745605 
	C211.914062,211.462173 209.024200,209.899124 206.988007,209.845245 
	C204.058121,209.767715 204.593842,206.849396 204.145996,204.495819 
	C208.828659,204.091766 213.467972,204.097549 218.106888,204.056763 
	C219.647842,204.043198 221.182953,203.981522 221.741760,205.843292 
	C222.703186,209.046463 223.442749,212.280304 225.476074,215.116577 
	C226.535858,216.594849 225.893372,218.152420 223.676956,217.797974 
	C221.734177,217.487320 219.259338,219.131256 217.723633,216.062683 
	C216.492310,213.857742 217.509048,212.125809 217.484406,210.094818 
	C216.737686,209.697464 216.479370,209.516052 216.045532,209.172470 
z"/>
<path fill="#585858" opacity="1.000000" stroke="none" 
	d="
M118.806618,211.786240 
	C118.792587,213.699753 118.540253,215.388702 118.349174,217.439026 
	C117.816467,217.839005 117.222488,217.877594 116.182800,217.884369 
	C114.562950,215.180725 113.864510,211.697144 109.302238,214.401642 
	C108.534920,214.649994 108.077118,214.687042 107.274185,214.583374 
	C104.486519,213.237122 101.991005,212.713455 99.477814,214.268127 
	C98.263649,215.019241 97.275520,215.235550 95.927963,214.331696 
	C93.174553,212.484879 90.675827,213.021744 88.421463,215.938202 
	C87.935555,216.227219 87.709282,216.283173 87.149055,216.234146 
	C83.023781,212.004730 81.397644,212.137772 76.929489,216.974243 
	C76.242661,217.025864 75.895653,217.013458 75.287895,217.003357 
	C73.451836,215.201508 74.423927,213.481323 75.220085,211.354248 
	C75.627464,209.548798 76.527573,208.675964 78.328644,208.316467 
	C82.052071,208.826187 85.363853,209.150513 88.634476,206.923523 
	C89.181313,207.003738 89.374474,207.009415 89.856689,207.036530 
	C95.081497,209.572037 95.415054,209.458954 97.733276,204.291473 
	C98.757439,204.025711 99.562294,204.028503 100.769318,204.061417 
	C101.579208,207.701477 103.438019,209.465637 107.530060,208.883209 
	C108.336021,208.978226 108.801880,208.994308 109.623039,208.978516 
	C111.634598,208.672623 113.297661,208.744156 115.308792,208.929672 
	C115.877991,209.042938 116.100220,209.105804 116.631195,209.318726 
	C117.745636,209.961853 118.003296,210.881317 118.806618,211.786240 
z"/>
<path fill="#E9E9E9" opacity="1.000000" stroke="none" 
	d="
M87.680115,216.301544 
	C88.223862,213.792938 88.558487,211.638779 91.645203,211.975845 
	C93.962730,212.228912 96.961861,210.891052 97.385292,215.022949 
	C100.132187,210.947845 103.375885,211.110123 107.043839,213.570053 
	C107.670319,215.296051 107.238571,216.404907 106.041550,217.601166 
	C100.164177,218.149033 94.601562,216.460571 88.630211,217.852249 
	C87.750893,217.576416 87.532608,217.167145 87.680115,216.301544 
z"/>
<path fill="#323232" opacity="1.000000" stroke="none" 
	d="
M119.100815,218.428528 
	C134.007172,217.974747 149.009216,217.913696 164.474869,217.821198 
	C164.878860,219.495255 163.859406,219.993103 162.315826,219.989090 
	C148.445328,219.953033 134.574707,219.950485 120.704491,219.872299 
	C120.199875,219.869461 119.699089,219.186996 119.100815,218.428528 
z"/>
<path fill="#EEEEEE" opacity="1.000000" stroke="none" 
	d="
M201.694153,199.304947 
	C201.853561,197.519699 202.619675,196.943878 204.004364,196.887573 
	C208.051834,196.722946 212.020523,198.113327 216.176361,196.998016 
	C218.411880,196.398087 219.225327,198.790359 219.277863,200.591675 
	C219.349167,203.037552 217.023972,202.405685 215.986328,202.092194 
	C212.822861,201.136444 209.792130,202.320419 206.715927,202.163055 
	C205.219772,202.086517 203.251984,202.917526 202.483521,200.145981 
	C202.041977,199.740524 201.789566,199.697937 201.694153,199.304947 
z"/>
<path fill="#E5E5E5" opacity="1.000000" stroke="none" 
	d="
M111.636314,196.993439 
	C114.013878,196.938751 116.052521,196.943375 118.521782,197.024597 
	C119.295212,197.459152 119.465462,197.885925 119.284805,198.693100 
	C118.817329,200.945679 118.282486,202.679306 115.746956,202.214050 
	C111.988754,201.524445 108.249413,201.819733 104.489143,202.196106 
	C103.234596,202.321701 101.619461,202.443634 101.920403,200.284866 
	C102.122025,198.838562 101.986214,197.079269 104.083916,196.938034 
	C105.735901,196.826828 107.402916,196.938736 109.497421,197.046112 
	C110.390015,197.160309 110.845139,197.128693 111.636314,196.993439 
z"/>
<path fill="#EEEEEE" opacity="1.000000" stroke="none" 
	d="
M74.271217,202.547699 
	C73.356224,199.386063 74.003479,196.358643 77.469368,197.059540 
	C81.974899,197.970688 86.339508,195.887741 91.021706,197.581665 
	C91.820724,199.367889 90.732224,200.449905 90.149963,202.036835 
	C88.246529,203.543686 86.360252,203.288834 84.124557,203.152557 
	C83.020790,202.900772 82.373131,202.574326 81.715118,201.701080 
	C81.483986,201.054901 81.508926,200.727356 81.706039,200.464233 
	C81.930367,200.164780 82.147392,200.039703 82.297905,200.044678 
	C82.269775,200.710754 82.468781,200.005875 81.618195,200.384079 
	C80.925476,201.352127 80.576660,202.205505 79.385605,202.774536 
	C77.550659,203.312134 76.064156,203.374313 74.271217,202.547699 
z"/>
<path fill="#FCFCFC" opacity="1.000000" stroke="none" 
	d="
M164.217270,209.554749 
	C163.407013,210.313019 162.844040,210.812103 161.730591,211.554474 
	C159.965179,211.824722 158.750275,211.851669 157.304840,212.010742 
	C157.170303,211.520218 157.554733,210.735931 157.312149,210.302963 
	C156.277496,208.456268 155.660782,205.267853 156.857971,204.936005 
	C158.851624,204.383347 161.619659,203.345795 163.937927,205.653442 
	C164.914673,206.999130 165.125992,208.099701 164.217270,209.554749 
z"/>
<path fill="#E9E9E9" opacity="1.000000" stroke="none" 
	d="
M72.688477,211.287201 
	C75.327263,212.046036 76.656212,213.513138 75.085930,216.531738 
	C74.349197,217.983765 73.261879,218.007126 72.352821,217.792023 
	C70.631554,217.384735 67.723106,219.162827 67.370644,216.503906 
	C67.000916,213.714737 68.792755,211.509079 72.688477,211.287201 
z"/>
<path fill="#E9E9E9" opacity="1.000000" stroke="none" 
	d="
M76.914597,217.307098 
	C77.450462,212.335388 80.582863,211.470505 84.768684,211.951920 
	C87.288635,212.241730 86.505623,213.710022 86.260086,215.508987 
	C86.526794,216.734406 86.039818,217.189682 85.133942,217.727112 
	C82.288742,217.761688 79.764137,217.668808 76.914597,217.307098 
z"/>
<path fill="#EEEEEE" opacity="1.000000" stroke="none" 
	d="
M73.620682,210.529144 
	C73.183441,210.888077 72.851776,210.899002 72.879333,210.907272 
	C68.234253,208.381958 70.686935,206.213821 73.636673,203.956909 
	C75.574226,202.839157 77.179268,202.791992 79.123260,203.944519 
	C80.029633,205.280930 80.135696,206.386520 79.478554,208.254242 
	C77.383713,209.368118 75.720818,209.769180 73.620682,210.529144 
z"/>
<path fill="#EEEEEE" opacity="1.000000" stroke="none" 
	d="
M88.951744,206.651489 
	C86.883972,211.758530 82.825615,209.624512 79.222366,209.341675 
	C79.046600,208.967072 79.018791,209.015976 79.010956,209.042999 
	C79.892700,207.982056 79.368645,206.689941 79.531433,205.110687 
	C79.605095,204.472229 79.666740,204.218353 80.020752,203.695557 
	C81.051331,203.033279 81.843666,202.936844 83.079338,203.001129 
	C85.381805,203.228134 87.477203,202.406097 89.135086,204.530136 
	C89.104393,205.401245 89.009857,205.853073 88.951744,206.651489 
z"/>
<path fill="#FEFEFE" opacity="1.000000" stroke="none" 
	d="
M144.032074,209.849533 
	C142.445541,209.839035 141.415436,209.825180 140.206299,209.838135 
	C136.718460,208.992294 137.771439,206.099716 138.706039,204.909622 
	C140.046570,203.202667 143.059677,203.529648 144.643936,204.469772 
	C146.647171,205.658539 146.334015,208.044998 144.032074,209.849533 
z"/>
<path fill="#FEFEFE" opacity="1.000000" stroke="none" 
	d="
M153.489548,209.853760 
	C151.897217,209.845230 150.841721,209.824020 149.626434,209.826553 
	C145.973373,209.688156 147.132233,206.884018 147.497620,205.435425 
	C148.108429,203.013809 150.552780,204.447968 152.181229,204.157806 
	C154.033707,203.827728 154.993439,204.690903 154.857178,206.647385 
	C154.779037,207.769348 155.159866,208.998047 153.489548,209.853760 
z"/>
<path fill="#FCFCFC" opacity="1.000000" stroke="none" 
	d="
M183.111084,209.652954 
	C181.063141,209.914383 179.248917,209.662613 177.540817,209.980682 
	C174.930634,210.466751 176.157761,208.362808 175.434982,207.194595 
	C174.363358,206.378250 174.366821,205.591934 174.996643,204.483276 
	C177.936264,205.128967 182.275665,201.399551 183.118347,207.540588 
	C183.472443,208.393509 183.536514,208.880539 183.111084,209.652954 
z"/>
<path fill="#EEEEEE" opacity="1.000000" stroke="none" 
	d="
M173.868591,206.691589 
	C173.629669,212.788803 169.125748,208.655289 166.569809,209.957230 
	C164.963806,209.148132 165.039169,207.825119 164.805145,206.318695 
	C166.585999,202.815155 169.555817,204.493286 172.381958,204.121735 
	C173.771423,204.578690 173.915726,205.429184 173.868591,206.691589 
z"/>
<path fill="#EEEEEE" opacity="1.000000" stroke="none" 
	d="
M175.984375,212.412048 
	C179.991379,212.246307 184.975815,210.042969 184.635620,217.377396 
	C182.439728,217.776886 180.275940,217.797714 177.703979,217.806732 
	C175.727356,216.405777 175.136383,214.703613 175.984375,212.412048 
z"/>
<path fill="#EEEEEE" opacity="1.000000" stroke="none" 
	d="
M191.430450,204.079529 
	C193.450394,210.034927 193.450394,210.034927 185.888214,209.812317 
	C184.827744,209.701996 184.499649,209.362595 184.618454,208.309174 
	C183.787827,201.646713 188.625336,204.857819 191.430450,204.079529 
z"/>
<path fill="#EEEEEE" opacity="1.000000" stroke="none" 
	d="
M107.942719,209.615143 
	C106.577278,209.821182 105.581642,209.812393 104.614449,209.973923 
	C99.869820,210.766190 99.310806,208.618088 101.071442,204.478699 
	C102.818748,204.089722 104.481697,204.231903 106.109795,204.054367 
	C108.981430,203.741241 108.321640,205.623352 108.256409,207.555389 
	C108.514084,208.424957 108.530197,208.948502 107.942719,209.615143 
z"/>
<path fill="#E9E9E9" opacity="1.000000" stroke="none" 
	d="
M166.535339,213.434052 
	C168.390121,211.030746 170.837433,212.410217 173.438034,212.035431 
	C175.014130,213.271912 175.757751,214.625320 175.259262,216.690735 
	C168.679504,218.890259 167.285294,218.366989 166.535339,213.434052 
z"/>
<path fill="#FCFCFC" opacity="1.000000" stroke="none" 
	d="
M97.535500,204.067841 
	C98.839111,206.322922 98.783737,209.072815 96.407303,209.623856 
	C94.636230,210.034531 91.217766,211.896774 90.146317,207.482483 
	C91.109451,202.855240 94.488770,204.371384 97.535500,204.067841 
z"/>
<path fill="#FCFCFC" opacity="1.000000" stroke="none" 
	d="
M201.297302,204.154175 
	C203.358780,210.383087 203.152023,210.536804 197.441940,209.956726 
	C193.681290,209.574707 195.215042,206.591553 194.740051,204.370941 
	C196.977921,204.056717 198.929504,204.100906 201.297302,204.154175 
z"/>
<path fill="#EEEEEE" opacity="1.000000" stroke="none" 
	d="
M117.241714,209.668610 
	C114.952782,209.959213 112.961182,209.966492 110.543533,209.955750 
	C109.682144,209.610428 109.473839,209.174606 109.630539,208.274750 
	C109.759697,202.227158 114.037102,204.526703 117.278381,204.134308 
	C119.625603,205.956772 117.637856,207.642654 117.241714,209.668610 
z"/>
<path fill="#FCFCFC" opacity="1.000000" stroke="none" 
	d="
M134.809738,209.833191 
	C133.407257,209.925125 132.264435,209.894135 130.781494,209.912460 
	C129.993546,209.811722 129.554367,209.639435 128.875519,209.193146 
	C128.430878,208.495697 128.382034,208.037155 128.651215,207.250916 
	C128.760162,203.194336 131.535797,204.301743 133.596817,204.114685 
	C135.842224,203.910919 137.042374,204.645935 136.442474,207.478912 
	C136.155502,208.637711 135.692551,209.228760 134.809738,209.833191 
z"/>
<path fill="#FCFCFC" opacity="1.000000" stroke="none" 
	d="
M108.544327,214.341492 
	C110.207024,210.367691 113.395233,211.916016 115.447960,212.382950 
	C117.833572,212.925629 115.818871,215.376572 115.842072,217.414917 
	C113.829605,217.832352 111.922127,217.812149 109.606369,217.828491 
	C108.161621,217.024628 107.984276,215.951019 108.544327,214.341492 
z"/>
<path fill="#E9E9E9" opacity="1.000000" stroke="none" 
	d="
M182.887344,197.274994 
	C183.656296,197.000763 184.166916,196.813324 184.627716,196.897797 
	C186.712982,197.280075 189.390640,195.588638 190.757446,198.378250 
	C191.209198,199.300278 191.278229,201.425797 190.966797,201.544556 
	C188.539322,202.470337 185.985168,202.882004 183.330536,200.946518 
	C182.888809,200.476608 182.709747,200.323318 182.391632,199.844238 
	C182.115891,198.796997 182.203781,198.114639 182.887344,197.274994 
z"/>
<path fill="#E5E5E5" opacity="1.000000" stroke="none" 
	d="
M182.863434,200.007828 
	C183.058624,200.340546 183.061142,200.485321 183.064514,200.557617 
	C179.890884,202.508224 176.703964,204.492691 174.019775,199.399689 
	C173.608398,198.599854 173.501205,198.155685 173.827072,197.381927 
	C176.265701,197.081589 178.483002,197.064713 181.108841,197.108734 
	C183.045074,197.479279 182.191040,198.882935 182.863434,200.007828 
z"/>
<path fill="#E5E5E5" opacity="1.000000" stroke="none" 
	d="
M164.193604,198.633789 
	C163.598389,200.260086 164.248901,202.236816 161.927475,202.161163 
	C160.183746,202.104340 158.271515,202.828323 156.741547,201.615219 
	C155.758057,200.835419 156.167679,199.488495 156.229553,198.382767 
	C156.299393,197.134354 157.248108,196.832291 158.298996,196.851883 
	C159.760468,196.879120 161.220642,196.974884 163.093872,197.108109 
	C164.202469,197.212555 164.508224,197.577240 164.193604,198.633789 
z"/>
<path fill="#E5E5E5" opacity="1.000000" stroke="none" 
	d="
M129.080597,197.286316 
	C131.290695,197.067871 133.080505,196.927765 134.873062,196.856308 
	C135.984879,196.812012 136.826096,197.303192 136.848755,198.504272 
	C136.869659,199.612152 137.158875,200.855865 136.222748,201.753189 
	C134.735764,203.178513 130.342758,201.947845 129.097992,199.413361 
	C128.609863,198.524200 128.495911,197.988739 129.080597,197.286316 
z"/>
<path fill="#E9E9E9" opacity="1.000000" stroke="none" 
	d="
M201.205536,199.714081 
	C199.533157,204.455261 196.176208,201.994598 193.795029,201.569321 
	C192.551254,201.347198 191.488113,198.240616 192.940308,197.513290 
	C195.185272,196.388931 198.221848,195.551971 200.488983,198.890884 
	C200.956467,199.271515 201.176178,199.346893 201.205536,199.714081 
z"/>
<path fill="#E5E5E5" opacity="1.000000" stroke="none" 
	d="
M154.272797,197.535324 
	C154.715744,199.284683 155.535904,201.132294 153.871292,201.875626 
	C152.082489,202.674408 149.900909,202.575241 148.033920,201.876129 
	C146.736603,201.390320 147.236099,199.858429 147.213257,198.749146 
	C147.188690,197.555695 147.919708,196.878967 149.063385,196.894608 
	C150.703873,196.917038 152.342163,197.100296 154.272797,197.535324 
z"/>
<path fill="#E5E5E5" opacity="1.000000" stroke="none" 
	d="
M144.625214,202.051910 
	C142.879242,202.181595 141.555893,202.193192 140.232544,202.193817 
	C138.777191,202.194504 138.167389,201.414581 138.216461,200.011078 
	C138.256180,198.875061 137.981796,197.478790 139.462830,197.129608 
	C141.373154,196.679230 143.612015,196.126709 145.158066,197.465881 
	C146.426468,198.564606 146.193008,200.455475 144.625214,202.051910 
z"/>
<path fill="#E9E9E9" opacity="1.000000" stroke="none" 
	d="
M92.695023,198.235138 
	C93.749214,196.479507 95.227310,196.739899 96.458687,196.898514 
	C97.969147,197.093094 100.553055,195.675491 100.525177,198.813187 
	C100.501526,201.474701 98.893768,202.605759 96.223175,202.201950 
	C94.929138,202.006256 93.618034,201.923416 92.105713,201.418762 
	C91.349617,200.033188 91.888458,199.264587 92.695023,198.235138 
z"/>
<path fill="#E5E5E5" opacity="1.000000" stroke="none" 
	d="
M173.147797,198.695068 
	C172.786850,200.571411 173.006378,202.608215 170.469070,202.172958 
	C168.535538,201.841278 165.515564,203.710953 165.031158,199.405762 
	C164.595200,198.578369 164.479263,198.102264 164.844788,197.309814 
	C167.134598,196.996490 169.150375,196.948776 171.599960,196.904816 
	C172.741623,197.158310 173.101089,197.705856 173.147797,198.695068 
z"/>
<path fill="#E5E5E5" opacity="1.000000" stroke="none" 
	d="
M128.286957,198.666412 
	C127.889069,200.935699 127.396500,202.701553 124.880074,202.191376 
	C123.134415,201.837463 120.206017,203.649307 120.096832,199.415192 
	C119.468216,198.282394 119.921082,197.769363 120.684570,197.124512 
	C123.011726,196.958588 125.026100,196.924026 127.465805,196.964996 
	C128.349274,197.351303 128.536850,197.780350 128.286957,198.666412 
z"/>
<path fill="#323232" opacity="1.000000" stroke="none" 
	d="
M89.401199,204.756165 
	C87.661476,203.191757 85.607071,204.411713 83.425575,203.947418 
	C82.664238,203.626556 82.543495,203.284882 82.833176,202.651779 
	C85.065567,202.355560 87.087608,202.272614 89.530197,202.076889 
	C90.154045,201.805511 90.357346,201.646912 90.783363,201.804504 
	C90.538551,202.934769 90.071014,203.748825 89.401199,204.756165 
z"/>
<path fill="#323232" opacity="1.000000" stroke="none" 
	d="
M80.415215,204.150925 
	C80.276390,204.585312 80.366951,204.845078 80.273735,204.946228 
	C79.998070,205.196396 79.815620,205.345398 79.391418,205.236679 
	C77.999985,203.290710 76.243355,204.348419 74.404182,203.939117 
	C74.015686,203.528351 74.016930,203.194656 73.976128,202.614258 
	C75.676270,202.325363 77.418457,202.283188 79.583923,202.135773 
	C80.405281,202.522537 80.587364,203.084610 80.415215,204.150925 
z"/>
<path fill="#717171" opacity="1.000000" stroke="none" 
	d="
M175.309402,217.138962 
	C174.693649,215.607452 174.355560,214.195160 173.942261,212.426849 
	C174.412964,212.080963 174.958893,212.091110 175.912872,212.138428 
	C176.598404,213.812698 176.875839,215.449783 177.224548,217.440887 
	C176.726227,217.616013 176.156631,217.437103 175.309402,217.138962 
z"/>
<path fill="#717171" opacity="1.000000" stroke="none" 
	d="
M108.475647,213.951096 
	C108.793648,215.008972 108.845894,216.065720 109.048111,217.493729 
	C108.327759,217.875900 107.457436,217.886780 106.152855,217.843384 
	C106.130646,216.734344 106.542679,215.679581 107.050980,214.297470 
	C107.501465,213.963394 107.855667,213.956665 108.475647,213.951096 
z"/>
<path fill="#585858" opacity="1.000000" stroke="none" 
	d="
M117.019478,210.007385 
	C117.236435,208.258850 117.528481,206.565765 117.758369,204.512939 
	C118.255051,204.117722 118.813904,204.082245 119.792297,204.076416 
	C119.894592,205.208862 119.577332,206.311646 119.100731,207.719543 
	C118.318169,208.597260 118.625504,209.643921 117.553513,210.158600 
	C117.245682,210.172485 117.094574,210.062836 117.019478,210.007385 
z"/>
<path fill="#717171" opacity="1.000000" stroke="none" 
	d="
M91.086594,201.890289 
	C90.829285,202.100784 90.652473,202.080872 90.213196,202.012543 
	C90.283012,200.813690 90.615295,199.663239 91.145309,198.205292 
	C91.692070,197.920959 92.041084,197.944107 92.653519,197.965576 
	C92.668945,198.792404 92.420952,199.620926 92.034866,200.748749 
	C91.568787,201.150848 91.325554,201.354797 91.086594,201.890289 
z"/>
<path fill="#717171" opacity="1.000000" stroke="none" 
	d="
M164.692886,205.972565 
	C165.560272,206.949326 166.086304,207.985016 166.070602,209.575378 
	C165.779724,209.921219 165.417023,209.920624 164.512146,209.866974 
	C163.956146,208.741058 163.942337,207.668198 164.014679,206.279846 
	C164.100830,205.964355 164.495560,205.982620 164.692886,205.972565 
z"/>
<path fill="#717171" opacity="1.000000" stroke="none" 
	d="
M128.502380,206.903564 
	C128.889526,207.389206 128.958389,207.839371 129.044891,208.633636 
	C129.239746,209.223099 129.416962,209.468491 130.027649,209.848969 
	C130.268356,210.143188 130.075607,210.302307 129.554047,210.281311 
	C128.857956,210.162186 128.490677,210.223114 127.774933,209.847733 
	C125.253319,208.932083 125.986664,207.949051 127.269890,206.917053 
	C127.758286,206.899811 127.971191,206.883957 128.502380,206.903564 
z"/>
<path fill="#717171" opacity="1.000000" stroke="none" 
	d="
M174.194794,206.993454 
	C173.534286,206.268753 173.232864,205.514008 172.859436,204.455597 
	C173.356537,204.139847 173.925659,204.127792 174.917511,204.178497 
	C175.360840,204.910385 175.381439,205.579514 175.337128,206.577042 
	C175.032776,206.924789 174.793320,206.944107 174.194794,206.993454 
z"/>
<path fill="#484848" opacity="1.000000" stroke="none" 
	d="
M120.844238,196.761856 
	C120.768044,197.502258 120.538727,198.011353 120.162811,198.759979 
	C120.016205,198.999527 119.561371,199.004135 119.333939,199.004395 
	C119.045845,198.583054 118.985191,198.161469 118.938461,197.420547 
	C119.349983,196.356506 119.865242,195.970322 120.844238,196.761856 
z"/>
<path fill="#717171" opacity="1.000000" stroke="none" 
	d="
M85.236771,217.898758 
	C85.170723,217.319931 85.528091,216.785278 86.057556,216.084198 
	C86.498009,215.925262 86.766365,215.932770 87.437271,215.951477 
	C87.918961,216.382446 87.998100,216.802216 88.143204,217.535431 
	C87.359512,217.880249 86.509850,217.911606 85.236771,217.898758 
z"/>
<path fill="#484848" opacity="1.000000" stroke="none" 
	d="
M111.813972,196.709976 
	C111.262291,197.180725 111.721313,200.282761 109.908249,197.466370 
	C110.306931,196.401016 110.800316,195.971619 111.813972,196.709976 
z"/>
<path fill="#484848" opacity="1.000000" stroke="none" 
	d="
M173.220703,199.001785 
	C172.732635,198.486145 172.470154,197.972443 172.120728,197.183655 
	C172.514679,196.185440 173.082993,195.994415 173.916992,196.859650 
	C174.042084,197.524551 174.035767,197.950623 173.963440,198.690552 
	C173.897446,199.004425 173.446274,199.003708 173.220703,199.001785 
z"/>
<path fill="#717171" opacity="1.000000" stroke="none" 
	d="
M184.481567,207.891754 
	C184.930191,208.304092 185.122696,208.696274 185.399368,209.406525 
	C184.894974,209.791046 184.306412,209.857468 183.273849,209.917419 
	C182.900757,209.469971 182.971695,209.029037 183.121368,208.260986 
	C183.541901,207.913101 183.883698,207.892334 184.481567,207.891754 
z"/>
<path fill="#CFCFCF" opacity="1.000000" stroke="none" 
	d="
M134.568497,209.982880 
	C134.971207,209.328308 135.392319,208.700516 136.075745,207.963821 
	C136.540375,208.647522 136.324341,209.302582 135.135162,209.912903 
	C134.578583,210.005112 134.586899,210.009674 134.568497,209.982880 
z"/>
<path fill="#717171" opacity="1.000000" stroke="none" 
	d="
M109.520035,207.904358 
	C109.828148,208.370865 109.887672,208.822510 110.032341,209.605927 
	C109.547585,209.918274 108.977669,209.898834 107.983780,209.815414 
	C107.688385,209.328583 107.816963,208.905701 108.111465,208.195496 
	C108.607880,207.856064 108.939224,207.849838 109.520035,207.904358 
z"/>
<path fill="#484848" opacity="1.000000" stroke="none" 
	d="
M183.129608,199.934906 
	C181.930603,199.913162 181.807770,198.894058 181.572296,197.539291 
	C181.791824,197.140076 182.066254,197.110519 182.754639,197.071991 
	C183.179260,197.885086 183.189926,198.707184 183.129608,199.934906 
z"/>
<path fill="#484848" opacity="1.000000" stroke="none" 
	d="
M128.341263,199.004730 
	C128.044388,198.570831 127.968506,198.136581 127.891876,197.371414 
	C128.159821,197.053543 128.428528,197.066574 129.098480,197.129303 
	C129.410645,197.589493 129.321548,197.999985 129.118317,198.705170 
	C129.004166,198.999832 128.562241,199.004349 128.341263,199.004730 
z"/>
<path fill="#484848" opacity="1.000000" stroke="none" 
	d="
M164.714539,197.062317 
	C165.099167,197.482422 165.079483,197.920624 164.989914,198.681107 
	C164.920013,199.003387 164.442017,199.000427 164.203003,198.999359 
	C163.831177,198.599869 163.698334,198.201431 163.535919,197.488953 
	C163.774292,197.143417 164.042252,197.111923 164.714539,197.062317 
z"/>
<path fill="#717171" opacity="1.000000" stroke="none" 
	d="
M201.338989,199.973221 
	C201.015182,200.005920 200.731506,199.650330 200.734131,199.423233 
	C200.915024,199.121262 201.093307,199.046402 201.561371,198.963043 
	C201.983368,199.061615 202.115570,199.168701 202.271088,199.529449 
	C202.083878,199.835587 201.873337,199.888046 201.338989,199.973221 
z"/>
<path fill="#424242" opacity="1.000000" stroke="none" 
	d="
M117.216537,210.474167 
	C117.660599,209.564133 118.075516,208.955780 118.715912,208.186035 
	C119.271149,209.194824 119.600914,210.364990 119.487808,211.772980 
	C118.240242,211.878189 117.405479,211.790802 117.216537,210.474167 
z"/>
<path fill="#424242" opacity="1.000000" stroke="none" 
	d="
M126.952362,209.571381 
	C127.713852,209.555862 128.001236,209.700363 128.756927,209.973022 
	C130.545792,212.099640 128.857452,211.745758 127.855988,211.780548 
	C126.394508,211.831314 125.712219,211.237595 126.952362,209.571381 
z"/>
<path fill="#CFCFCF" opacity="1.000000" stroke="none" 
	d="
M130.436600,209.981110 
	C130.158401,209.913055 129.855667,209.842072 129.307739,209.374390 
	C129.380234,209.180954 129.697937,209.384171 130.228531,209.774582 
	C130.441406,209.961761 130.412079,209.978149 130.436600,209.981110 
z"/>
<path fill="#424242" opacity="1.000000" stroke="none" 
	d="
M205.882874,213.974014 
	C206.454086,214.649246 206.892807,215.511047 205.991089,215.902634 
	C205.313873,216.196762 205.169647,215.352219 205.033417,214.409637 
	C205.230026,214.002319 205.416641,213.996338 205.882874,213.974014 
z"/>
<path fill="#EEEEEE" opacity="1.000000" stroke="none" 
	d="
M215.919296,209.320129 
	C216.180222,209.087967 216.474533,209.221558 216.874481,209.644989 
	C216.680359,209.757675 216.337891,209.674698 215.919296,209.320129 
z"/>
<path fill="#484848" opacity="1.000000" stroke="none" 
	d="
M80.624222,204.517197 
	C80.185623,204.019608 80.094864,203.453903 80.005653,202.459366 
	C80.299606,201.327301 80.592003,200.624054 81.455246,199.973053 
	C82.202484,200.668793 82.378868,201.312302 82.799393,202.197174 
	C83.080460,202.758835 83.073952,203.078278 83.021149,203.636948 
	C82.336212,204.067734 81.654137,204.258408 80.624222,204.517197 
z"/>
<path fill="#424242" opacity="1.000000" stroke="none" 
	d="
M81.605988,199.803177 
	C81.747604,199.507172 82.042152,199.257675 82.336693,199.008179 
	C82.404449,199.267349 82.472214,199.526535 82.283035,199.905487 
	C82.026093,200.025284 81.758919,199.849701 81.605988,199.803177 
z"/>
<path fill="#484848" opacity="1.000000" stroke="none" 
	d="
M78.990997,205.390381 
	C79.322311,204.977127 79.494942,204.975266 79.924042,205.010406 
	C79.937355,206.200348 79.694191,207.353333 79.227081,208.788147 
	C77.607422,208.050568 78.904015,206.890411 78.990997,205.390381 
z"/>
</svg>